<mxfile host="app.diagrams.net" agent="Mozilla/5.0 (Windows NT 10.0; Win64; x64) AppleWebKit/537.36 (KHTML, like Gecko) Chrome/141.0.0.0 Safari/537.36" version="28.2.5">
  <diagram name="PÃ¡gina-1" id="tSvNxVfXGZo-txXaCuXj">
    <mxGraphModel dx="1106" dy="597" grid="1" gridSize="10" guides="1" tooltips="1" connect="1" arrows="1" fold="1" page="1" pageScale="1" pageWidth="827" pageHeight="1169" math="0" shadow="0">
      <root>
        <mxCell id="0" />
        <mxCell id="1" parent="0" />
        <mxCell id="-fS9qOMYzr-xpj3dif4j-1" value="Sarah" style="shape=umlActor;verticalLabelPosition=bottom;verticalAlign=top;html=1;fontStyle=1" vertex="1" parent="1">
          <mxGeometry x="140" y="210" width="30" height="60" as="geometry" />
        </mxCell>
        <mxCell id="-fS9qOMYzr-xpj3dif4j-14" value="" style="swimlane;startSize=0;" vertex="1" parent="1">
          <mxGeometry x="300" y="90" width="250" height="420" as="geometry">
            <mxRectangle x="200" y="80" width="50" height="40" as="alternateBounds" />
          </mxGeometry>
        </mxCell>
        <mxCell id="-fS9qOMYzr-xpj3dif4j-30" value="" style="endArrow=none;html=1;rounded=0;entryX=-0.02;entryY=0.35;entryDx=0;entryDy=0;entryPerimeter=0;" edge="1" parent="-fS9qOMYzr-xpj3dif4j-14" target="-fS9qOMYzr-xpj3dif4j-4">
          <mxGeometry width="50" height="50" relative="1" as="geometry">
            <mxPoint x="-120" y="150" as="sourcePoint" />
            <mxPoint x="70" y="290" as="targetPoint" />
          </mxGeometry>
        </mxCell>
        <mxCell id="-fS9qOMYzr-xpj3dif4j-29" value="" style="endArrow=none;html=1;rounded=0;entryX=0;entryY=0.5;entryDx=0;entryDy=0;entryPerimeter=0;" edge="1" parent="-fS9qOMYzr-xpj3dif4j-14" target="-fS9qOMYzr-xpj3dif4j-3">
          <mxGeometry width="50" height="50" relative="1" as="geometry">
            <mxPoint x="-120" y="150" as="sourcePoint" />
            <mxPoint x="60" y="155" as="targetPoint" />
          </mxGeometry>
        </mxCell>
        <mxCell id="-fS9qOMYzr-xpj3dif4j-3" value="devolver livros" style="strokeWidth=2;html=1;shape=mxgraph.flowchart.start_1;whiteSpace=wrap;align=center;" vertex="1" parent="-fS9qOMYzr-xpj3dif4j-14">
          <mxGeometry x="80" y="130" width="100" height="60" as="geometry" />
        </mxCell>
        <mxCell id="-fS9qOMYzr-xpj3dif4j-2" value="pegar livros" style="strokeWidth=2;html=1;shape=mxgraph.flowchart.start_1;whiteSpace=wrap;align=center;" vertex="1" parent="-fS9qOMYzr-xpj3dif4j-14">
          <mxGeometry x="75" y="40" width="100" height="60" as="geometry" />
        </mxCell>
        <mxCell id="-fS9qOMYzr-xpj3dif4j-4" value="emprestimo de livros" style="strokeWidth=2;html=1;shape=mxgraph.flowchart.start_1;whiteSpace=wrap;align=center;" vertex="1" parent="-fS9qOMYzr-xpj3dif4j-14">
          <mxGeometry x="75" y="230" width="100" height="60" as="geometry" />
        </mxCell>
        <mxCell id="-fS9qOMYzr-xpj3dif4j-16" value="" style="endArrow=none;html=1;rounded=0;entryX=0;entryY=0.5;entryDx=0;entryDy=0;entryPerimeter=0;" edge="1" parent="1" target="-fS9qOMYzr-xpj3dif4j-2">
          <mxGeometry width="50" height="50" relative="1" as="geometry">
            <mxPoint x="180" y="240" as="sourcePoint" />
            <mxPoint x="190" y="80" as="targetPoint" />
          </mxGeometry>
        </mxCell>
      </root>
    </mxGraphModel>
  </diagram>
</mxfile>
